<svg width="213" height="52" viewBox="0 0 213 52" fill="none" xmlns="http://www.w3.org/2000/svg">
<path d="M189.468 50.2865C189.504 50.2981 189.537 50.3171 189.566 50.3422C189.595 50.3673 189.618 50.3981 189.635 50.4327C189.651 50.4673 189.661 50.505 189.663 50.5435C189.665 50.582 189.659 50.6204 189.646 50.6565C189.626 50.714 189.59 50.7639 189.541 50.7994C189.493 50.8348 189.435 50.8541 189.375 50.8544C189.237 50.8675 189.098 50.8675 188.96 50.8544L181.235 49.8908C181.192 49.8846 181.148 49.8892 181.107 49.9041C181.065 49.9191 181.028 49.9441 180.998 49.9768L180 51.0006C179.948 51.0418 179.884 51.0641 179.818 51.0641C179.752 51.0641 179.688 51.0418 179.636 51.0006C179.272 50.7597 178.9 50.5016 178.536 50.2263C177.617 49.5544 176.736 48.8306 175.897 48.0584C175.843 48.0035 175.813 47.9293 175.813 47.8519C175.813 47.7745 175.843 47.7002 175.897 47.6454C175.937 47.6001 175.991 47.5691 176.051 47.5567C176.11 47.5444 176.171 47.5513 176.227 47.5766C177.432 48.1165 178.7 48.4981 180 48.7122C182.403 49.1079 184.975 49.2284 187.183 49.6757C187.959 49.8224 188.722 50.0266 189.468 50.2865Z" fill="url(#paint0_linear_676_4719)"/>
<path d="M190.077 45.1413C190.154 45.2203 190.197 45.3269 190.197 45.4381C190.197 45.5493 190.154 45.656 190.077 45.7349C190.022 45.791 189.952 45.8304 189.876 45.8486C189.799 45.8668 189.72 45.8632 189.646 45.8382C189.129 45.6657 188.6 45.5363 188.063 45.451C187.217 45.3048 186.261 45.1929 185.102 45.0897C180.025 44.6423 175.55 44.6854 171.141 43.1282C169.619 42.5839 168.32 41.5357 167.452 40.1515L167.309 39.9192L165.176 36.5382C165.119 36.4431 165.1 36.3288 165.123 36.2196C165.147 36.1104 165.211 36.0148 165.303 35.9532C165.353 35.9221 165.409 35.9014 165.467 35.8926C165.526 35.8837 165.585 35.8868 165.642 35.9016L166.809 36.2199C169.948 37.0028 173.375 37.433 176.768 38.2761C182.394 39.6698 186.244 41.7173 188.96 44.0659C189.366 44.4187 189.756 44.7714 190.111 45.1413H190.077Z" fill="url(#paint1_linear_676_4719)"/>
<path d="M195.704 40.5392C195.743 40.6035 195.755 40.6806 195.74 40.7544C195.724 40.8281 195.681 40.8928 195.619 40.9349C195.57 40.9682 195.513 40.986 195.454 40.986C195.395 40.986 195.338 40.9682 195.289 40.9349C193.948 39.9189 192.449 39.1369 190.856 38.6207C183.664 36.1602 171.581 34.9816 162.232 28.9938C161.239 28.3832 160.292 27.6988 159.398 26.9463C159.041 26.6069 158.715 26.2355 158.425 25.8365C156.575 23.369 154.92 20.757 153.475 18.0249C153.109 17.3075 152.92 16.5103 152.925 15.7021C152.936 15.6275 152.974 15.5599 153.032 15.5135C153.091 15.467 153.164 15.4452 153.238 15.4526C153.3 15.4518 153.36 15.4732 153.407 15.5128C153.763 15.8483 154.126 16.1753 154.49 16.485C160.65 21.6468 169.17 23.5395 178.824 27.841C189.739 32.719 192.878 36.0054 195.704 40.5392Z" fill="url(#paint2_linear_676_4719)"/>
<path d="M196.677 34.1041C196.692 34.1362 196.701 34.1711 196.704 34.2069C196.706 34.2426 196.701 34.2784 196.689 34.3121C196.677 34.3459 196.658 34.3768 196.635 34.4031C196.611 34.4295 196.582 34.4506 196.55 34.4654C196.496 34.4914 196.436 34.4987 196.378 34.4863C196.32 34.4738 196.267 34.4423 196.228 34.3966C194.536 32.2458 192.269 30.6542 189.096 28.9336C177.462 22.6018 164.686 21.1908 155.319 11.2113C155.201 11.0908 155.091 10.9618 154.973 10.8327C154.799 10.6421 154.707 10.3892 154.716 10.1295C154.726 9.8698 154.836 9.62456 155.023 9.44764C155.086 9.38827 155.157 9.33895 155.235 9.30138C155.711 9.05122 156.239 8.92137 156.775 8.92285H156.859H158.255C159.037 8.94535 159.816 8.80177 160.54 8.5013C160.572 8.4881 160.602 8.46843 160.627 8.44343C160.652 8.41844 160.672 8.38863 160.685 8.35576C160.698 8.32289 160.705 8.28762 160.705 8.25204C160.705 8.21646 160.698 8.18128 160.684 8.14857V8.09695L160.261 7.48613C160.107 7.27139 159.982 7.03711 159.888 6.78928C159.846 6.68374 159.824 6.57066 159.825 6.45661C159.826 6.34256 159.849 6.22982 159.893 6.12495C159.937 6.02008 160.002 5.92517 160.082 5.84574C160.163 5.76631 160.258 5.70395 160.362 5.66228C160.492 5.60882 160.632 5.58869 160.771 5.6037C160.909 5.61871 161.042 5.66839 161.158 5.74831H161.208C170.363 12.0716 180.846 16.5452 189.206 24.1159C192.371 26.8627 194.919 30.269 196.677 34.1041Z" fill="url(#paint3_linear_676_4719)"/>
<path d="M208.463 42.5866L198.817 45.0643C198.568 45.127 198.305 45.0871 198.085 44.9534C197.865 44.8196 197.705 44.6029 197.641 44.3503C197.587 44.1563 197.587 43.9506 197.641 43.7566C198.157 42.3801 198.775 40.9434 199.418 39.4551C201.956 33.4329 199.325 29.4841 195.865 25.6902C187.666 16.7257 175.237 10.2476 165.033 2.79734C164.817 2.64735 164.668 2.4166 164.619 2.15548C164.57 1.89437 164.624 1.62409 164.77 1.40364C164.89 1.23655 165.059 1.11289 165.253 1.05092L167.605 0.19061C168.089 0.0197191 168.604 -0.0373256 169.113 0.023773C169.621 0.0848716 170.11 0.26252 170.541 0.543336L184.281 9.49055C184.405 9.56828 184.543 9.61815 184.688 9.6368L190.61 10.3595C191.077 10.4156 191.528 10.57 191.932 10.813C192.337 11.0559 192.688 11.382 192.962 11.7704L204.08 26.9204C204.162 27.0323 204.266 27.1255 204.385 27.1937C204.505 27.2619 204.637 27.3036 204.774 27.3161L210.917 27.8581H211.06C211.224 27.8846 211.378 27.9519 211.51 28.054C211.641 28.1561 211.745 28.2898 211.813 28.4431C212.494 29.965 212.896 31.6007 212.998 33.2695C213.033 35.003 212.682 36.7222 211.971 38.2983C211.261 39.8745 210.209 41.267 208.894 42.3715C208.771 42.4801 208.623 42.5542 208.463 42.5866Z" fill="url(#paint4_linear_676_4719)"/>
<path d="M21.8647 36.7628C22.5367 36.7628 23.0148 36.6191 23.2991 36.3318C23.6092 36.0183 23.7643 35.4698 23.7643 34.6862V25.4004C23.7643 25.1392 23.8935 25.0086 24.152 25.0086H28.8816C29.14 25.0086 29.2693 25.1392 29.2693 25.4004V36.5669C29.2693 38.2647 28.9203 39.5185 28.2225 40.3282C27.5247 41.1118 26.3359 41.5036 24.656 41.5036H4.53577C2.90754 41.5036 1.74452 41.1118 1.04671 40.3282C0.348905 39.5185 0 38.2647 0 36.5669V27.908C0 27.6468 0.129224 27.5162 0.387672 27.5162H5.11727C5.37572 27.5162 5.50495 27.6468 5.50495 27.908V34.6862C5.50495 35.4698 5.64709 36.0183 5.93139 36.3318C6.24152 36.6191 6.71965 36.7628 7.36577 36.7628H21.8647ZM9.65304 23.3631C9.39459 23.3631 9.26537 23.2325 9.26537 22.9713V19.1316C9.26537 18.8704 9.39459 18.7398 9.65304 18.7398H13.5298C13.7882 18.7398 13.9174 18.8704 13.9174 19.1316V22.9713C13.9174 23.2325 13.7882 23.3631 13.5298 23.3631H9.65304ZM15.6232 23.3631C15.3647 23.3631 15.2355 23.2325 15.2355 22.9713V19.1316C15.2355 18.8704 15.3647 18.7398 15.6232 18.7398H19.5387C19.7971 18.7398 19.9264 18.8704 19.9264 19.1316V22.9713C19.9264 23.2325 19.7971 23.3631 19.5387 23.3631H15.6232Z" fill="url(#paint5_linear_676_4719)"/>
<path d="M39.0171 41.1118C39.0171 41.373 38.8879 41.5036 38.6294 41.5036H33.9386C33.6801 41.5036 33.5509 41.373 33.5509 41.1118V15.2527C33.5509 14.9915 33.6801 14.8609 33.9386 14.8609H38.6294C38.8879 14.8609 39.0171 14.9915 39.0171 15.2527V41.1118Z" fill="url(#paint6_linear_676_4719)"/>
<path d="M41.7983 49.5356C41.5399 49.5356 41.4107 49.405 41.4107 49.1438V45.1866C41.4107 44.9254 41.5399 44.7948 41.7983 44.7948H42.6512C43.7108 44.7948 44.4603 44.5205 44.8997 43.972C45.3649 43.4235 45.5975 42.5876 45.5975 41.4644V25.4004C45.5975 25.1392 45.7267 25.0086 45.9852 25.0086H50.7148C50.9732 25.0086 51.1025 25.1392 51.1025 25.4004V41.6603C51.1025 44.3507 50.4822 46.3359 49.2416 47.6158C48.0011 48.8957 46.1144 49.5356 43.5816 49.5356H41.7983Z" fill="url(#paint7_linear_676_4719)"/>
<path d="M70.5866 34.8038C70.5866 36.0836 70.4574 37.1546 70.199 38.0166C69.9663 38.8785 69.6045 39.5707 69.1135 40.0931C68.6483 40.5894 68.0409 40.9551 67.2914 41.1902C66.5678 41.3991 65.7149 41.5036 64.7328 41.5036H55.3511C55.0927 41.5036 54.9634 41.373 54.9634 41.1118V37.1546C54.9634 36.8934 55.0927 36.7628 55.3511 36.7628H62.0191C62.6652 36.7628 63.1821 36.7236 63.5698 36.6452C63.9574 36.5408 64.2417 36.384 64.4226 36.1751C64.6294 35.9661 64.7586 35.6918 64.8103 35.3523C64.8878 35.0127 64.9266 34.5948 64.9266 34.0985V31.9828C64.9266 30.9641 64.6294 30.2327 64.035 29.7887C63.4664 29.3185 62.6006 29.0834 61.4376 29.0834H56.9793C56.7209 29.0834 56.5917 28.9528 56.5917 28.6916V24.7344C56.5917 24.4732 56.7209 24.3426 56.9793 24.3426H63.7248C65.9216 24.3426 67.6145 24.9172 68.8033 26.0665C69.9922 27.1897 70.5866 28.9659 70.5866 31.3951V34.8038Z" fill="url(#paint8_linear_676_4719)"/>
<path d="M74.8547 15.2527C74.8547 14.9915 74.9839 14.8609 75.2423 14.8609H79.9332C80.1916 14.8609 80.3208 14.9915 80.3208 15.2527V34.6862C80.3208 35.4698 80.463 36.0183 80.7473 36.3318C81.0574 36.6191 81.5355 36.7628 82.1817 36.7628H83.2284C83.7453 36.7628 84.1329 36.9587 84.3914 37.3505C84.6498 37.7162 84.7791 38.3431 84.7791 39.2311C84.7791 40.1715 84.6498 40.7853 84.3914 41.0726C84.1588 41.36 83.7711 41.5036 83.2284 41.5036H79.3904C77.7622 41.5036 76.5992 41.1118 75.9014 40.3282C75.2036 39.5185 74.8547 38.2647 74.8547 36.5669V15.2527Z" fill="url(#paint9_linear_676_4719)"/>
<path d="M86.8867 49.4964C86.6283 49.4964 86.4991 49.3658 86.4991 49.1046V45.2649C86.4991 45.0037 86.6283 44.8731 86.8867 44.8731H91.6939C91.9523 44.8731 92.0815 45.0037 92.0815 45.2649V49.1046C92.0815 49.3658 91.9523 49.4964 91.6939 49.4964H86.8867ZM91.5388 39.5446C91.0994 40.3543 90.4921 40.8898 89.7167 41.151C88.9414 41.3861 87.8559 41.5036 86.4603 41.5036H83.3589C82.842 41.5036 82.4543 41.4253 82.1959 41.2685C81.9374 41.0857 81.8082 40.7069 81.8082 40.1323C81.8082 39.7927 81.8341 39.427 81.8858 39.0352C81.9374 38.6434 82.0279 38.2778 82.1571 37.9382C82.2864 37.5986 82.4543 37.3244 82.6611 37.1154C82.8679 36.8803 83.1263 36.7628 83.4364 36.7628H84.7158C85.517 36.7628 86.0209 36.5408 86.2277 36.0967C86.4603 35.6265 86.5766 34.8038 86.5766 33.6283V25.4004C86.5766 25.1915 86.7575 25.0739 87.1193 25.0478C87.507 25.0217 87.843 25.0086 88.1273 25.0086H91.6939C91.9523 25.0086 92.0815 25.1392 92.0815 25.4004V34.647C92.1332 35.3 92.4046 35.8224 92.8956 36.2143C93.4125 36.5799 94.1233 36.7628 95.0278 36.7628H95.9195C96.4364 36.7628 96.8241 36.9456 97.0825 37.3113C97.341 37.677 97.4702 38.2778 97.4702 39.1136C97.4702 40.7069 96.9533 41.5036 95.9195 41.5036C94.9374 41.5036 94.0845 41.3861 93.3609 41.151C92.6372 40.9159 92.0298 40.3804 91.5388 39.5446Z" fill="url(#paint10_linear_676_4719)"/>
<path d="M107.83 41.7779C106.461 41.7779 105.194 41.6081 104.031 41.2685C102.894 40.9028 101.938 40.276 101.162 39.3879C100.878 39.858 100.503 40.2368 100.038 40.5241C99.573 40.8114 99.0819 41.0334 98.565 41.1902C98.074 41.3208 97.5829 41.4122 97.0919 41.4644C96.6008 41.4906 96.1615 41.5036 95.7738 41.5036C95.2569 41.5036 94.8692 41.3338 94.6108 40.9943C94.3523 40.6547 94.2231 40.0539 94.2231 39.192C94.2231 38.3039 94.3394 37.677 94.572 37.3113C94.8046 36.9456 95.2052 36.7628 95.7738 36.7628H96.8981C97.4925 36.7628 98.0223 36.5146 98.4875 36.0183C98.9786 35.5221 99.2499 34.5948 99.3016 33.2365V32.4529C99.3016 29.8409 100.038 27.8427 101.511 26.4583C102.985 25.0478 105.091 24.3426 107.83 24.3426C110.441 24.3426 112.521 25.087 114.072 26.5759C115.623 28.0386 116.398 30.2588 116.398 33.2365C116.398 33.4194 116.385 33.6022 116.359 33.7851C116.359 33.9418 116.359 34.0985 116.359 34.2552C116.411 35.1172 116.656 35.7571 117.096 36.1751C117.535 36.5669 118.091 36.7628 118.763 36.7628H119.887C120.404 36.7628 120.792 36.9456 121.05 37.3113C121.308 37.677 121.438 38.2778 121.438 39.1136C121.438 40.7069 120.921 41.5036 119.887 41.5036C119.422 41.5036 118.944 41.4906 118.453 41.4644C117.962 41.4122 117.483 41.3077 117.018 41.151C116.553 40.9943 116.114 40.7722 115.7 40.4849C115.287 40.1715 114.925 39.7536 114.615 39.2311C113.839 40.1715 112.857 40.8375 111.668 41.2293C110.505 41.595 109.226 41.7779 107.83 41.7779ZM107.83 29.0834C105.711 29.0834 104.652 30.4025 104.652 33.0406C104.652 34.5295 104.91 35.5743 105.427 36.1751C105.97 36.7497 106.771 37.037 107.83 37.037C108.916 37.037 109.717 36.7497 110.234 36.1751C110.751 35.5743 111.009 34.5295 111.009 33.0406C111.009 30.4025 109.95 29.0834 107.83 29.0834Z" fill="url(#paint11_linear_676_4719)"/>
<path d="M119.852 41.5036C119.335 41.5036 118.947 41.4122 118.689 41.2293C118.43 41.0465 118.301 40.6808 118.301 40.1323C118.301 39.8189 118.34 39.4662 118.417 39.0744C118.469 38.6826 118.56 38.3169 118.689 37.9774C118.792 37.6378 118.947 37.3505 119.154 37.1154C119.335 36.8803 119.568 36.7628 119.852 36.7628H121.209C121.855 36.7628 122.32 36.6191 122.604 36.3318C122.914 36.0183 123.07 35.4698 123.07 34.6862V15.2527C123.07 14.9915 123.199 14.8609 123.457 14.8609H128.187C128.445 14.8609 128.575 14.9915 128.575 15.2527V36.5669C128.575 38.2647 128.226 39.5185 127.528 40.3282C126.83 41.1118 125.667 41.5036 124.039 41.5036H119.852Z" fill="url(#paint12_linear_676_4719)"/>
<path d="M138.699 41.1118C138.699 41.373 138.57 41.5036 138.311 41.5036H133.62C133.362 41.5036 133.233 41.373 133.233 41.1118V15.2527C133.233 14.9915 133.362 14.8609 133.62 14.8609H138.311C138.57 14.8609 138.699 14.9915 138.699 15.2527V41.1118Z" fill="url(#paint13_linear_676_4719)"/>
<defs>
<linearGradient id="paint0_linear_676_4719" x1="190.928" y1="48.3894" x2="175.28" y2="51.5453" gradientUnits="userSpaceOnUse">
<stop stop-color="#6097D9"/>
<stop offset="1" stop-color="#65AAE1"/>
</linearGradient>
<linearGradient id="paint1_linear_676_4719" x1="192.488" y1="38.268" x2="163.476" y2="42.0012" gradientUnits="userSpaceOnUse">
<stop stop-color="#6097D9"/>
<stop offset="1" stop-color="#65AAE1"/>
</linearGradient>
<linearGradient id="paint2_linear_676_4719" x1="199.657" y1="21.5462" x2="149.677" y2="25.8339" gradientUnits="userSpaceOnUse">
<stop stop-color="#6097D9"/>
<stop offset="1" stop-color="#65AAE1"/>
</linearGradient>
<linearGradient id="paint3_linear_676_4719" x1="200.538" y1="12.4955" x2="151.442" y2="16.1456" gradientUnits="userSpaceOnUse">
<stop stop-color="#6097D9"/>
<stop offset="1" stop-color="#65AAE1"/>
</linearGradient>
<linearGradient id="paint4_linear_676_4719" x1="217.42" y1="10.7635" x2="160.686" y2="13.8786" gradientUnits="userSpaceOnUse">
<stop stop-color="#6097D9"/>
<stop offset="1" stop-color="#65AAE1"/>
</linearGradient>
<linearGradient id="paint5_linear_676_4719" x1="151.365" y1="23.1375" x2="-5.15653" y2="55.1669" gradientUnits="userSpaceOnUse">
<stop stop-color="#6097D9"/>
<stop offset="1" stop-color="#65AAE1"/>
</linearGradient>
<linearGradient id="paint6_linear_676_4719" x1="151.365" y1="23.1375" x2="-5.15653" y2="55.1669" gradientUnits="userSpaceOnUse">
<stop stop-color="#6097D9"/>
<stop offset="1" stop-color="#65AAE1"/>
</linearGradient>
<linearGradient id="paint7_linear_676_4719" x1="151.365" y1="23.1375" x2="-5.15653" y2="55.1669" gradientUnits="userSpaceOnUse">
<stop stop-color="#6097D9"/>
<stop offset="1" stop-color="#65AAE1"/>
</linearGradient>
<linearGradient id="paint8_linear_676_4719" x1="151.365" y1="23.1375" x2="-5.15653" y2="55.1669" gradientUnits="userSpaceOnUse">
<stop stop-color="#6097D9"/>
<stop offset="1" stop-color="#65AAE1"/>
</linearGradient>
<linearGradient id="paint9_linear_676_4719" x1="151.365" y1="23.1375" x2="-5.15653" y2="55.1669" gradientUnits="userSpaceOnUse">
<stop stop-color="#6097D9"/>
<stop offset="1" stop-color="#65AAE1"/>
</linearGradient>
<linearGradient id="paint10_linear_676_4719" x1="151.365" y1="23.1375" x2="-5.15653" y2="55.1669" gradientUnits="userSpaceOnUse">
<stop stop-color="#6097D9"/>
<stop offset="1" stop-color="#65AAE1"/>
</linearGradient>
<linearGradient id="paint11_linear_676_4719" x1="151.365" y1="23.1375" x2="-5.15653" y2="55.1669" gradientUnits="userSpaceOnUse">
<stop stop-color="#6097D9"/>
<stop offset="1" stop-color="#65AAE1"/>
</linearGradient>
<linearGradient id="paint12_linear_676_4719" x1="151.365" y1="23.1375" x2="-5.15653" y2="55.1669" gradientUnits="userSpaceOnUse">
<stop stop-color="#6097D9"/>
<stop offset="1" stop-color="#65AAE1"/>
</linearGradient>
<linearGradient id="paint13_linear_676_4719" x1="151.365" y1="23.1375" x2="-5.15653" y2="55.1669" gradientUnits="userSpaceOnUse">
<stop stop-color="#6097D9"/>
<stop offset="1" stop-color="#65AAE1"/>
</linearGradient>
</defs>
</svg>
