<svg width="104" height="113" viewBox="0 0 104 113" fill="none" xmlns="http://www.w3.org/2000/svg">
<path d="M51.89 112.81C34.65 112.81 17.92 109.35 2.15 102.49L0 101.58L0.13 99.16C2.08 60.74 20.2 25.26 49.86 1.67004L51.89 0.0400391L53.92 1.67004C83.58 25.19 101.7 60.73 103.66 99.15L103.79 101.57L101.64 102.48C85.86 109.34 69.13 112.8 51.9 112.8L51.89 112.81ZM6.9 97.06C21.16 102.94 36.3 105.95 51.83 105.95C67.36 105.95 82.5 102.94 96.76 97.06C94.35 62.5 78.07 30.55 51.83 8.73004C25.59 30.55 9.31 62.5 6.9 97.06Z" fill="url(#paint0_linear_2_13806)"/>
<path d="M71.03 96.2101C71.23 96.1801 71.42 96.1401 71.62 96.1001C71.96 96.0401 72.29 95.9801 72.61 95.9101C74.1 95.6301 75.58 95.3101 77.06 94.9601C80.55 94.1401 83.36 93.3101 85.32 92.6701C86.39 92.3301 87.46 91.9901 88.52 91.6401C85.16 63.7401 72.17 38.0701 51.89 19.1801C48.85 21.9901 46 24.9901 43.27 28.1301L44.73 29.5001L46.5 31.3301L48.27 33.0901L50.04 34.9201L51.75 36.8101L53.46 38.6401L55.11 40.6001L56.76 42.5601L58.34 44.5201L59.86 46.5501L61.38 48.5801L62.84 50.6101L64.3 52.7001L65.69 54.8601L67.08 57.0201L68.41 59.1801L69.74 61.4001L70.94 63.6201L72.14 65.9101L73.34 68.1301L74.42 70.4201L75.5 72.7701L76.51 75.0601L77.52 77.4101L78.47 79.7601L79.42 82.1101L80.31 84.5301L80.94 86.3901L75.33 83.2801L75.12 82.7101L73.6 78.9901L71.95 75.3301L70.24 71.6701L68.4 68.0801L66.44 64.5501L64.41 61.0901L62.26 57.6901L59.98 54.3601L57.64 51.0901L55.23 47.8901L52.7 44.7501L50.1 41.7401L47.44 38.8001L44.65 35.9301L41.8 33.1201L40.15 31.6201C37.43 35.0201 34.95 38.4801 32.61 42.1401L33.43 42.7901L36.6 45.6001L39.71 48.5401L42.75 51.4801L45.73 54.4901L48.64 57.6301L51.43 60.8301L54.15 64.1001L56.81 67.4301L59.34 70.8301L61.81 74.2901L63.91 77.3701C63.12 77.0701 62.32 76.7901 61.52 76.5501L59.21 73.7701L56.1 70.1801L52.87 66.6501L49.57 63.1901L46.21 59.8601L42.79 56.5901L39.3 53.3901L35.69 50.2501L32.01 47.2401L30.24 45.8701C28.47 48.8801 26.82 52.0101 25.36 55.2101L28.4 57.3001L32.27 60.1101L35.82 62.8501L39.31 65.6601L42.73 68.6001L46.09 71.6101L49.39 74.7501L49.74 75.1101C47.88 75.2101 46.02 75.4801 44.18 75.9001L43.81 75.5401L40.58 72.6001L37.22 69.7301L33.8 66.9201L30.31 64.2401L26.76 61.6301L23.72 59.4701C22.64 62.0201 21.69 64.5701 20.81 67.1101L20.94 67.1801L22.52 67.9601L24.17 68.8101L25.75 69.6601L27.33 70.5701L28.91 71.4801L30.49 72.4601L32.01 73.4401L33.53 74.4201L35.05 75.4701L36.57 76.5201L38.03 77.5701L38.31 77.7801C37.22 78.2401 36.13 78.7701 35.07 79.3401L34.23 78.8701L31.44 77.3001L28.59 75.8001L25.74 74.3601L22.89 72.9901L19.98 71.6201L19.41 71.3601C18.59 74.1001 17.89 76.9101 17.26 79.7201L19.29 80.5001L22.4 81.7401L25.51 83.0501L27.59 83.9701L23.06 86.8001L21.46 86.0501L19.43 85.2001L17.4 84.3501L16.39 83.9601C15.95 86.5001 15.51 89.1101 15.19 91.7101C15.19 91.7101 15.19 91.7201 15.19 91.7301C20.21 93.5301 25.32 94.9001 30.53 95.9101C36.22 97.0601 43.03 98.0201 50.12 98.0601C57.99 98.1101 65.11 97.3 71.03 96.2401V96.2101Z" fill="url(#paint1_linear_2_13806)"/>
<path d="M48 85.73C47.11 86.75 46.08 87.64 44.95 88.31C44.28 88.72 42.48 90.06 41.72 89.36C41.6 89.25 41.56 89.09 41.51 88.94C40.9 86.38 41.96 84.25 43.38 82.26C44.24 81.07 45.18 79.99 46.23 78.98C46.38 78.84 46.9 78.27 47.11 78.24C47.13 78.24 47.1 78.31 47.04 78.38C46.99 78.45 46.95 78.52 46.94 78.55C46.5 79.31 43.41 84.87 43.37 85.87C43.32 86.95 45.76 86.26 46.41 85.76C46.8 85.46 46.78 84.88 46.79 84.35C46.81 83.41 46.29 82.56 47.13 81.83C47.7 81.34 48.84 80.88 49.51 81.32C51.13 82.38 48.74 84.87 48.01 85.71L48 85.73Z" fill="white"/>
<path d="M52.97 85.72C52.05 86.85 49.74 89.01 48.57 90.35C47.4 91.7 44.98 94.16 44.24 95.04C43.51 95.91 40.53 95.85 40.53 95.85C40.53 95.85 42.97 93.77 44.32 92.74C45.68 91.69 48.14 88.6 49.14 87.49C50.12 86.38 51.82 84.19 52.32 83.56C52.81 82.94 54.34 81.26 54.34 81.26C54.34 81.26 55.22 82.94 52.98 85.71L52.97 85.72Z" fill="white"/>
<path d="M58.78 80.64C58.27 81.89 56.35 80.15 58.19 78.87C60.04 77.58 60.26 77.32 60.19 78.17L58.78 80.65V80.64Z" fill="white"/>
<path d="M64.5101 80.8C64.5201 80.99 64.4101 81.17 64.2201 81.22C64.0101 81.27 63.7801 81.28 63.5901 81.38C63.2701 81.51 63.3601 81.64 63.3701 82.01C63.3801 82.74 63.3401 83.47 63.2001 84.19C63.1301 84.58 63.0301 84.98 62.8101 85.29C62.3401 85.96 61.4801 86.09 60.9301 86.65C60.3501 87.22 59.8001 87.85 59.2901 88.48C58.9601 88.9 58.6501 90.23 58.5501 90.77C58.1901 92.69 53.7201 94.34 51.5301 94.34C48.3401 94.35 50.7601 92.44 51.2501 92.05C51.3001 92.01 51.3701 91.99 51.4301 91.99L55.7401 91.53C57.6101 91.34 58.2001 88.77 57.3901 88.06C56.5801 87.36 55.8201 87.13 55.7201 85.73C55.6601 85.08 56.6401 82.48 58.9101 83.68C60.1801 84.35 61.4601 84.25 61.4601 84.25V83.74L61.2801 81.5C59.8201 81.79 60.2101 80.75 60.3701 80.25C60.5301 79.75 61.0701 79.89 62.3801 79.3C63.5501 78.76 63.9901 78.51 64.2401 78.51L64.5301 80.81L64.5101 80.8Z" fill="white"/>
<defs>
<linearGradient id="paint0_linear_2_13806" x1="24.07" y1="127.36" x2="102.15" y2="5.65004" gradientUnits="userSpaceOnUse">
<stop offset="0.06" stop-color="#D75DFF"/>
<stop offset="0.53" stop-color="#00D7FF"/>
<stop offset="0.56" stop-color="#00DAF9"/>
<stop offset="1" stop-color="#00FFB0"/>
</linearGradient>
<linearGradient id="paint1_linear_2_13806" x1="50.72" y1="121.43" x2="55.69" y2="-8.69995" gradientUnits="userSpaceOnUse">
<stop stop-color="#D75DFF"/>
<stop offset="0.06" stop-color="#CA64FF"/>
<stop offset="0.16" stop-color="#A877FF"/>
<stop offset="0.31" stop-color="#7196FF"/>
<stop offset="0.48" stop-color="#25C1FF"/>
<stop offset="0.56" stop-color="#00D7FF"/>
<stop offset="0.64" stop-color="#00E3E6"/>
<stop offset="0.76" stop-color="#00F2C8"/>
<stop offset="0.86" stop-color="#00FBB6"/>
<stop offset="0.94" stop-color="#00FFB0"/>
</linearGradient>
</defs>
</svg>
